Bitcount-VariationPixelsQ.ufo
<glyph name="Pix01@00" format="2">
  <advance width="100"/>
  <guideline x="50" y="133" angle="90" identifier="0TEQn04FOP"/>
  <guideline x="68" y="100" angle="0" identifier="j7AK2k8kV6"/>
  <guideline x="125" y="50" angle="0" identifier="VHhNmLRBqe"/>
  <outline>
    <contour>
      <point x="51" y="39" type="line"/>
      <point x="51" y="51" type="line"/>
      <point x="51" y="51" type="line"/>
      <point x="51" y="51"/>
      <point x="51" y="51"/>
      <point x="51" y="51" type="curve"/>
      <point x="51" y="51" type="line"/>
      <point x="39" y="51" type="line"/>
      <point x="39" y="50" type="line"/>
      <point x="39" y="50" type="line"/>
      <point x="39" y="43"/>
      <point x="43" y="39"/>
      <point x="50" y="39" type="curve"/>
      <point x="50" y="39" type="line"/>
    </contour>
    <contour>
      <point x="49" y="39" type="line"/>
      <point x="50" y="39" type="line"/>
      <point x="50" y="39" type="line"/>
      <point x="57" y="39"/>
      <point x="61" y="43"/>
      <point x="61" y="50" type="curve"/>
      <point x="61" y="50" type="line"/>
      <point x="61" y="51" type="line"/>
      <point x="49" y="51" type="line"/>
      <point x="49" y="51" type="line"/>
      <point x="49" y="51"/>
      <point x="49" y="51"/>
      <point x="49" y="51" type="curve"/>
      <point x="49" y="51" type="line"/>
    </contour>
    <contour>
      <point x="49" y="61" type="line"/>
      <point x="49" y="49" type="line"/>
      <point x="49" y="49" type="line"/>
      <point x="49" y="49"/>
      <point x="49" y="49"/>
      <point x="49" y="49" type="curve"/>
      <point x="49" y="49" type="line"/>
      <point x="61" y="49" type="line"/>
      <point x="61" y="50" type="line"/>
      <point x="61" y="50" type="line"/>
      <point x="61" y="57"/>
      <point x="57" y="61"/>
      <point x="50" y="61" type="curve"/>
      <point x="50" y="61" type="line"/>
    </contour>
    <contour>
      <point x="51" y="61" type="line"/>
      <point x="50" y="61" type="line"/>
      <point x="50" y="61" type="line"/>
      <point x="43" y="61"/>
      <point x="39" y="57"/>
      <point x="39" y="50" type="curve"/>
      <point x="39" y="50" type="line"/>
      <point x="39" y="49" type="line"/>
      <point x="51" y="49" type="line"/>
      <point x="51" y="49" type="line"/>
      <point x="51" y="49"/>
      <point x="51" y="49"/>
      <point x="51" y="49" type="curve"/>
      <point x="51" y="49" type="line"/>
    </contour>
  </outline>
</glyph>
<glyph name="Pix02@10_i" format="2">
  <advance width="100"/>
  <guideline x="50" y="133" angle="90" identifier="0TEQn04FOP"/>
  <guideline x="68" y="100" angle="0" identifier="j7AK2k8kV6"/>
  <guideline x="125" y="50" angle="0" identifier="VHhNmLRBqe"/>
  <outline>
    <contour>
      <point x="51" y="-2" type="line"/>
      <point x="51" y="2" type="line"/>
      <point x="50" y="2" type="line"/>
      <point x="22" y="2"/>
      <point x="2" y="22"/>
      <point x="2" y="50" type="curve"/>
      <point x="2" y="51" type="line"/>
      <point x="-2" y="51" type="line"/>
      <point x="-2" y="50" type="line"/>
      <point x="-2" y="50" type="line"/>
      <point x="-2" y="19"/>
      <point x="19" y="-2"/>
      <point x="50" y="-2" type="curve"/>
      <point x="50" y="-2" type="line"/>
    </contour>
    <contour>
      <point x="49" y="-2" type="line"/>
      <point x="50" y="-2" type="line"/>
      <point x="50" y="-2" type="line"/>
      <point x="81" y="-2"/>
      <point x="102" y="19"/>
      <point x="102" y="50" type="curve"/>
      <point x="102" y="50" type="line"/>
      <point x="102" y="51" type="line"/>
      <point x="98" y="51" type="line"/>
      <point x="98" y="50" type="line"/>
      <point x="98" y="22"/>
      <point x="78" y="2"/>
      <point x="50" y="2" type="curve"/>
      <point x="49" y="2" type="line"/>
    </contour>
    <contour>
      <point x="49" y="102" type="line"/>
      <point x="49" y="98" type="line"/>
      <point x="50" y="98" type="line"/>
      <point x="78" y="98"/>
      <point x="98" y="78"/>
      <point x="98" y="50" type="curve"/>
      <point x="98" y="49" type="line"/>
      <point x="102" y="49" type="line"/>
      <point x="102" y="50" type="line"/>
      <point x="102" y="50" type="line"/>
      <point x="102" y="81"/>
      <point x="81" y="102"/>
      <point x="50" y="102" type="curve"/>
      <point x="50" y="102" type="line"/>
    </contour>
    <contour>
      <point x="51" y="102" type="line"/>
      <point x="50" y="102" type="line"/>
      <point x="50" y="102" type="line"/>
      <point x="19" y="102"/>
      <point x="-2" y="81"/>
      <point x="-2" y="50" type="curve"/>
      <point x="-2" y="50" type="line"/>
      <point x="-2" y="49" type="line"/>
      <point x="2" y="49" type="line"/>
      <point x="2" y="50" type="line"/>
      <point x="2" y="78"/>
      <point x="22" y="98"/>
      <point x="50" y="98" type="curve"/>
      <point x="51" y="98" type="line"/>
    </contour>
  </outline>
</glyph>
<glyph name="Pix03@10_i" format="2">
  <advance width="100"/>
  <outline>
    <contour>
      <point x="43" y="-2" type="line"/>
      <point x="43" y="2" type="line"/>
      <point x="43" y="2" type="line"/>
      <point x="14.86" y="2.0"/>
      <point x="-2.0200000000000005" y="21.86"/>
      <point x="2" y="50" type="curve"/>
      <point x="2" y="50" type="line"/>
      <point x="-2" y="50" type="line"/>
      <point x="-9" y="-2" type="line"/>
      <point x="-9" y="-2" type="line"/>
      <point x="-9.0" y="-2.0"/>
      <point x="-9.0" y="-2.0"/>
      <point x="-9" y="-2" type="curve"/>
      <point x="-9" y="-2" type="line"/>
    </contour>
    <contour>
      <point x="43" y="-2" type="line"/>
      <point x="95" y="-2" type="line"/>
      <point x="95" y="-2" type="line"/>
      <point x="95.0" y="-2.0"/>
      <point x="95.0" y="-2.0"/>
      <point x="95" y="-2" type="curve"/>
      <point x="95" y="-2" type="line"/>
      <point x="102" y="50" type="line"/>
      <point x="98" y="50" type="line"/>
      <point x="98" y="50" type="line"/>
      <point x="93.98" y="21.86"/>
      <point x="71.14" y="2.0"/>
      <point x="43" y="2" type="curve"/>
      <point x="43" y="2" type="line"/>
    </contour>
    <contour>
      <point x="57" y="102" type="line"/>
      <point x="57" y="98" type="line"/>
      <point x="57" y="98" type="line"/>
      <point x="85.14" y="98.0"/>
      <point x="102.02" y="78.14"/>
      <point x="98" y="50" type="curve"/>
      <point x="98" y="50" type="line"/>
      <point x="102" y="50" type="line"/>
      <point x="109" y="102" type="line"/>
      <point x="109" y="102" type="line"/>
      <point x="109.0" y="102.0"/>
      <point x="109.0" y="102.0"/>
      <point x="109" y="102" type="curve"/>
      <point x="109" y="102" type="line"/>
    </contour>
    <contour>
      <point x="57" y="102" type="line"/>
      <point x="5" y="102" type="line"/>
      <point x="5" y="102" type="line"/>
      <point x="5.0" y="102.0"/>
      <point x="5.0" y="102.0"/>
      <point x="5" y="102" type="curve"/>
      <point x="5" y="102" type="line"/>
      <point x="-2" y="50" type="line"/>
      <point x="2" y="50" type="line"/>
      <point x="2" y="50" type="line"/>
      <point x="6.0200000000000005" y="78.14"/>
      <point x="28.86" y="98.0"/>
      <point x="57" y="98" type="curve"/>
      <point x="57" y="98" type="line"/>
    </contour>
  </outline>
</glyph>
<glyph name="Pix04@00" format="2">
  <advance width="100"/>
  <guideline x="50" y="133" angle="90" identifier="0TEQn04FOP"/>
  <guideline x="68" y="100" angle="0" identifier="j7AK2k8kV6"/>
  <guideline x="125" y="50" angle="0" identifier="VHhNmLRBqe"/>
  <guideline x="-13" y="25" angle="0" identifier="lhfIYr4Ekd"/>
  <guideline x="-22" y="75" angle="0" identifier="M8YhAuLaaj"/>
  <outline>
    <contour>
      <point x="52" y="38" type="line"/>
      <point x="52" y="42" type="line"/>
      <point x="50" y="42" type="line"/>
      <point x="46" y="46"/>
      <point x="46" y="46"/>
      <point x="42" y="50" type="curve"/>
      <point x="42" y="52" type="line"/>
      <point x="38" y="52" type="line"/>
      <point x="38" y="38" type="line"/>
      <point x="38" y="38" type="line"/>
      <point x="38" y="38"/>
      <point x="38" y="38"/>
      <point x="38" y="38" type="curve"/>
      <point x="38" y="38" type="line"/>
    </contour>
    <contour>
      <point x="48" y="38" type="line"/>
      <point x="62" y="38" type="line"/>
      <point x="62" y="38" type="line"/>
      <point x="62" y="38"/>
      <point x="62" y="38"/>
      <point x="62" y="38" type="curve"/>
      <point x="62" y="38" type="line"/>
      <point x="62" y="52" type="line"/>
      <point x="58" y="52" type="line"/>
      <point x="58" y="50" type="line"/>
      <point x="54" y="46"/>
      <point x="54" y="46"/>
      <point x="50" y="42" type="curve"/>
      <point x="48" y="42" type="line"/>
    </contour>
    <contour>
      <point x="48" y="62" type="line"/>
      <point x="48" y="58" type="line"/>
      <point x="50" y="58" type="line"/>
      <point x="54" y="54"/>
      <point x="54" y="54"/>
      <point x="58" y="50" type="curve"/>
      <point x="58" y="48" type="line"/>
      <point x="62" y="48" type="line"/>
      <point x="62" y="62" type="line"/>
      <point x="62" y="62" type="line"/>
      <point x="62" y="62"/>
      <point x="62" y="62"/>
      <point x="62" y="62" type="curve"/>
      <point x="62" y="62" type="line"/>
    </contour>
    <contour>
      <point x="52" y="62" type="line"/>
      <point x="38" y="62" type="line"/>
      <point x="38" y="62" type="line"/>
      <point x="38" y="62"/>
      <point x="38" y="62"/>
      <point x="38" y="62" type="curve"/>
      <point x="38" y="62" type="line"/>
      <point x="38" y="48" type="line"/>
      <point x="42" y="48" type="line"/>
      <point x="42" y="50" type="line"/>
      <point x="46" y="54"/>
      <point x="46" y="54"/>
      <point x="50" y="58" type="curve"/>
      <point x="52" y="58" type="line"/>
    </contour>
  </outline>
</glyph>
<glyph name="Pix04@10_i" format="2">
  <advance width="100"/>
  <outline>
    <contour>
      <point x="43" y="-2" type="line"/>
      <point x="43" y="2" type="line"/>
      <point x="43" y="2" type="line"/>
      <point x="23" y="26"/>
      <point x="23" y="26"/>
      <point x="2" y="50" type="curve"/>
      <point x="2" y="50" type="line"/>
      <point x="-2" y="50" type="line"/>
      <point x="-9" y="-2" type="line"/>
      <point x="-9" y="-2" type="line"/>
      <point x="-9" y="-2"/>
      <point x="-9" y="-2"/>
      <point x="-9" y="-2" type="curve"/>
      <point x="-9" y="-2" type="line"/>
    </contour>
    <contour>
      <point x="43" y="-2" type="line"/>
      <point x="95" y="-2" type="line"/>
      <point x="95" y="-2" type="line"/>
      <point x="95" y="-2"/>
      <point x="95" y="-2"/>
      <point x="95" y="-2" type="curve"/>
      <point x="95" y="-2" type="line"/>
      <point x="102" y="50" type="line"/>
      <point x="98" y="50" type="line"/>
      <point x="98" y="50" type="line"/>
      <point x="69" y="24"/>
      <point x="69" y="24"/>
      <point x="43" y="2" type="curve"/>
      <point x="43" y="2" type="line"/>
    </contour>
    <contour>
      <point x="57" y="102" type="line"/>
      <point x="57" y="98" type="line"/>
      <point x="57" y="98" type="line"/>
      <point x="78" y="74"/>
      <point x="78" y="74"/>
      <point x="98" y="50" type="curve"/>
      <point x="98" y="50" type="line"/>
      <point x="102" y="50" type="line"/>
      <point x="109" y="102" type="line"/>
      <point x="109" y="102" type="line"/>
      <point x="109" y="102"/>
      <point x="109" y="102"/>
      <point x="109" y="102" type="curve"/>
      <point x="109" y="102" type="line"/>
    </contour>
    <contour>
      <point x="57" y="102" type="line"/>
      <point x="5" y="102" type="line"/>
      <point x="5" y="102" type="line"/>
      <point x="5" y="102"/>
      <point x="5" y="102"/>
      <point x="5" y="102" type="curve"/>
      <point x="5" y="102" type="line"/>
      <point x="-2" y="50" type="line"/>
      <point x="2" y="50" type="line"/>
      <point x="2" y="50" type="line"/>
      <point x="30" y="74"/>
      <point x="30" y="74"/>
      <point x="57" y="98" type="curve"/>
      <point x="57" y="98" type="line"/>
    </contour>
  </outline>
</glyph>
<glyph name="Pix04@11" format="2">
  <advance width="100"/>
  <guideline x="50" y="133" angle="90" identifier="0TEQn04FOP"/>
  <guideline x="68" y="100" angle="0" identifier="j7AK2k8kV6"/>
  <guideline x="125" y="50" angle="0" identifier="VHhNmLRBqe"/>
  <guideline x="-13" y="25" angle="0" identifier="lhfIYr4Ekd"/>
  <guideline x="-22" y="75" angle="0" identifier="M8YhAuLaaj"/>
  <outline>
    <contour>
      <point x="2" y="-52" type="line"/>
      <point x="2" y="-48" type="line"/>
      <point x="2" y="-48" type="line"/>
      <point x="-30" y="-16"/>
      <point x="-13" y="-33"/>
      <point x="-48" y="2" type="curve"/>
      <point x="-48" y="2" type="line"/>
      <point x="-52" y="2" type="line"/>
      <point x="-52" y="-52" type="line"/>
      <point x="-52" y="-52" type="line"/>
      <point x="-52" y="-52"/>
      <point x="-52" y="-52"/>
      <point x="-52" y="-52" type="curve"/>
      <point x="-52" y="-52" type="line"/>
    </contour>
    <contour>
      <point x="98" y="-52" type="line"/>
      <point x="152" y="-52" type="line"/>
      <point x="152" y="-52" type="line"/>
      <point x="152" y="-52"/>
      <point x="152" y="-52"/>
      <point x="152" y="-52" type="curve"/>
      <point x="152" y="-52" type="line"/>
      <point x="152" y="2" type="line"/>
      <point x="148" y="2" type="line"/>
      <point x="148" y="2" type="line"/>
      <point x="114" y="-32"/>
      <point x="132" y="-14"/>
      <point x="98" y="-48" type="curve"/>
      <point x="98" y="-48" type="line"/>
    </contour>
    <contour>
      <point x="98" y="152" type="line"/>
      <point x="98" y="148" type="line"/>
      <point x="98" y="148" type="line"/>
      <point x="132" y="114"/>
      <point x="114" y="132"/>
      <point x="148" y="98" type="curve"/>
      <point x="148" y="98" type="line"/>
      <point x="152" y="98" type="line"/>
      <point x="152" y="152" type="line"/>
      <point x="152" y="152" type="line"/>
      <point x="152" y="152"/>
      <point x="152" y="152"/>
      <point x="152" y="152" type="curve"/>
      <point x="152" y="152" type="line"/>
    </contour>
    <contour>
      <point x="2" y="152" type="line"/>
      <point x="-52" y="152" type="line"/>
      <point x="-52" y="152" type="line"/>
      <point x="-52" y="152"/>
      <point x="-52" y="152"/>
      <point x="-52" y="152" type="curve"/>
      <point x="-52" y="152" type="line"/>
      <point x="-52" y="98" type="line"/>
      <point x="-48" y="98" type="line"/>
      <point x="-48" y="98" type="line"/>
      <point x="-14" y="132"/>
      <point x="-32" y="114"/>
      <point x="2" y="148" type="curve"/>
      <point x="2" y="148" type="line"/>
    </contour>
  </outline>
</glyph>
<glyph name="Pix05@01" format="2">
  <advance width="100"/>
  <guideline x="50" y="133" angle="90" identifier="0TEQn04FOP"/>
  <guideline x="68" y="100" angle="0" identifier="j7AK2k8kV6"/>
  <guideline x="125" y="50" angle="0" identifier="VHhNmLRBqe"/>
  <guideline x="-13" y="25" angle="0" identifier="lhfIYr4Ekd"/>
  <guideline x="-22" y="75" angle="0" identifier="M8YhAuLaaj"/>
  <outline>
    <contour>
      <point x="2" y="-12" type="line"/>
      <point x="2" y="-8" type="line"/>
      <point x="-8" y="-8" type="line"/>
      <point x="-8.0" y="-8.0"/>
      <point x="-8.0" y="-8.0"/>
      <point x="-8" y="-8" type="curve"/>
      <point x="-8" y="2" type="line"/>
      <point x="-12" y="2" type="line"/>
      <point x="-12" y="-12" type="line"/>
      <point x="-12" y="-12" type="line"/>
      <point x="-12.0" y="-12.0"/>
      <point x="-12.0" y="-12.0"/>
      <point x="-12" y="-12" type="curve"/>
      <point x="-12" y="-12" type="line"/>
    </contour>
    <contour>
      <point x="98" y="-12" type="line"/>
      <point x="112" y="-12" type="line"/>
      <point x="112" y="-12" type="line"/>
      <point x="112.0" y="-12.0"/>
      <point x="112.0" y="-12.0"/>
      <point x="112" y="-12" type="curve"/>
      <point x="112" y="-12" type="line"/>
      <point x="112" y="2" type="line"/>
      <point x="108" y="2" type="line"/>
      <point x="108" y="-8" type="line"/>
      <point x="108.0" y="-8.0"/>
      <point x="108.0" y="-8.0"/>
      <point x="108" y="-8" type="curve"/>
      <point x="98" y="-8" type="line"/>
    </contour>
    <contour>
      <point x="98" y="112" type="line"/>
      <point x="98" y="108" type="line"/>
      <point x="108" y="108" type="line"/>
      <point x="108.0" y="108.0"/>
      <point x="108.0" y="108.0"/>
      <point x="108" y="108" type="curve"/>
      <point x="108" y="98" type="line"/>
      <point x="112" y="98" type="line"/>
      <point x="112" y="112" type="line"/>
      <point x="112" y="112" type="line"/>
      <point x="112.0" y="112.0"/>
      <point x="112.0" y="112.0"/>
      <point x="112" y="112" type="curve"/>
      <point x="112" y="112" type="line"/>
    </contour>
    <contour>
      <point x="2" y="112" type="line"/>
      <point x="-12" y="112" type="line"/>
      <point x="-12" y="112" type="line"/>
      <point x="-12.0" y="112.0"/>
      <point x="-12.0" y="112.0"/>
      <point x="-12" y="112" type="curve"/>
      <point x="-12" y="112" type="line"/>
      <point x="-12" y="98" type="line"/>
      <point x="-8" y="98" type="line"/>
      <point x="-8" y="108" type="line"/>
      <point x="-8.0" y="108.0"/>
      <point x="-8.0" y="109.34"/>
      <point x="-8" y="108" type="curve"/>
      <point x="2" y="108" type="line"/>
    </contour>
  </outline>
</glyph>
<glyph name="Pix05@20" format="2">
  <advance width="100"/>
  <guideline x="50" y="133" angle="90" identifier="0TEQn04FOP"/>
  <guideline x="68" y="100" angle="0" identifier="j7AK2k8kV6"/>
  <guideline x="125" y="50" angle="0" identifier="VHhNmLRBqe"/>
  <guideline x="-13" y="25" angle="0" identifier="lhfIYr4Ekd"/>
  <guideline x="-22" y="75" angle="0" identifier="M8YhAuLaaj"/>
  <outline>
    <contour>
      <point x="52" y="-52" type="line"/>
      <point x="52" y="-48" type="line"/>
      <point x="-48" y="-48" type="line"/>
      <point x="-48" y="-48"/>
      <point x="-48" y="-48"/>
      <point x="-48" y="-48" type="curve"/>
      <point x="-48" y="52" type="line"/>
      <point x="-52" y="52" type="line"/>
      <point x="-52" y="-52" type="line"/>
      <point x="-52" y="-52" type="line"/>
      <point x="-52" y="-52"/>
      <point x="-52" y="-52"/>
      <point x="-52" y="-52" type="curve"/>
      <point x="-52" y="-52" type="line"/>
    </contour>
    <contour>
      <point x="48" y="-52" type="line"/>
      <point x="152" y="-52" type="line"/>
      <point x="152" y="-52" type="line"/>
      <point x="152" y="-52"/>
      <point x="152" y="-52"/>
      <point x="152" y="-52" type="curve"/>
      <point x="152" y="-52" type="line"/>
      <point x="152" y="52" type="line"/>
      <point x="148" y="52" type="line"/>
      <point x="148" y="-48" type="line"/>
      <point x="148" y="-48"/>
      <point x="148" y="-48"/>
      <point x="148" y="-48" type="curve"/>
      <point x="48" y="-48" type="line"/>
    </contour>
    <contour>
      <point x="48" y="152" type="line"/>
      <point x="48" y="148" type="line"/>
      <point x="148" y="148" type="line"/>
      <point x="148" y="148"/>
      <point x="148" y="148"/>
      <point x="148" y="148" type="curve"/>
      <point x="148" y="48" type="line"/>
      <point x="152" y="48" type="line"/>
      <point x="152" y="152" type="line"/>
      <point x="152" y="152" type="line"/>
      <point x="152" y="152"/>
      <point x="152" y="152"/>
      <point x="152" y="152" type="curve"/>
      <point x="152" y="152" type="line"/>
    </contour>
    <contour>
      <point x="52" y="152" type="line"/>
      <point x="-52" y="152" type="line"/>
      <point x="-52" y="152" type="line"/>
      <point x="-52" y="152"/>
      <point x="-52" y="152"/>
      <point x="-52" y="152" type="curve"/>
      <point x="-52" y="152" type="line"/>
      <point x="-52" y="48" type="line"/>
      <point x="-48" y="48" type="line"/>
      <point x="-48" y="148" type="line"/>
      <point x="-48" y="148"/>
      <point x="-48" y="148"/>
      <point x="-48" y="148" type="curve"/>
      <point x="52" y="148" type="line"/>
    </contour>
  </outline>
</glyph>
<glyph name="Pix05@21" format="2">
  <advance width="100"/>
  <guideline x="50" y="133" angle="90" identifier="0TEQn04FOP"/>
  <guideline x="68" y="100" angle="0" identifier="j7AK2k8kV6"/>
  <guideline x="125" y="50" angle="0" identifier="VHhNmLRBqe"/>
  <guideline x="-13" y="25" angle="0" identifier="lhfIYr4Ekd"/>
  <guideline x="-22" y="75" angle="0" identifier="M8YhAuLaaj"/>
  <outline>
    <contour>
      <point x="2" y="-102" type="line"/>
      <point x="2" y="-98" type="line"/>
      <point x="-98" y="-98" type="line"/>
      <point x="-98.0" y="-98.0"/>
      <point x="-98.0" y="-98.0"/>
      <point x="-98" y="-98" type="curve"/>
      <point x="-98" y="2" type="line"/>
      <point x="-102" y="2" type="line"/>
      <point x="-102" y="-102" type="line"/>
      <point x="-102" y="-102" type="line"/>
      <point x="-102.0" y="-102.0"/>
      <point x="-102.0" y="-102.0"/>
      <point x="-102" y="-102" type="curve"/>
      <point x="-102" y="-102" type="line"/>
    </contour>
    <contour>
      <point x="98" y="-102" type="line"/>
      <point x="202" y="-102" type="line"/>
      <point x="202" y="-102" type="line"/>
      <point x="202.0" y="-102.0"/>
      <point x="202.0" y="-102.0"/>
      <point x="202" y="-102" type="curve"/>
      <point x="202" y="-102" type="line"/>
      <point x="202" y="2" type="line"/>
      <point x="198" y="2" type="line"/>
      <point x="198" y="-98" type="line"/>
      <point x="198.0" y="-98.0"/>
      <point x="198.0" y="-98.0"/>
      <point x="198" y="-98" type="curve"/>
      <point x="98" y="-98" type="line"/>
    </contour>
    <contour>
      <point x="98" y="202" type="line"/>
      <point x="98" y="198" type="line"/>
      <point x="198" y="198" type="line"/>
      <point x="198.0" y="198.0"/>
      <point x="198.0" y="198.0"/>
      <point x="198" y="198" type="curve"/>
      <point x="198" y="98" type="line"/>
      <point x="202" y="98" type="line"/>
      <point x="202" y="202" type="line"/>
      <point x="202" y="202" type="line"/>
      <point x="202.0" y="202.0"/>
      <point x="202.0" y="202.0"/>
      <point x="202" y="202" type="curve"/>
      <point x="202" y="202" type="line"/>
    </contour>
    <contour>
      <point x="2" y="202" type="line"/>
      <point x="-102" y="202" type="line"/>
      <point x="-102" y="202" type="line"/>
      <point x="-102.0" y="202.0"/>
      <point x="-102.0" y="202.0"/>
      <point x="-102" y="202" type="curve"/>
      <point x="-102" y="202" type="line"/>
      <point x="-102" y="98" type="line"/>
      <point x="-98" y="98" type="line"/>
      <point x="-98" y="198" type="line"/>
      <point x="-98.0" y="198.0"/>
      <point x="-98.0" y="198.0"/>
      <point x="-98" y="198" type="curve"/>
      <point x="2" y="198" type="line"/>
    </contour>
  </outline>
</glyph>
<glyph name="Pix05@21_i" format="2">
  <advance width="100"/>
  <outline>
    <contour>
      <point x="-19" y="-102" type="line"/>
      <point x="-19" y="-98" type="line"/>
      <point x="-119" y="-98" type="line"/>
      <point x="-119.0" y="-98.0"/>
      <point x="-119.0" y="-98.0"/>
      <point x="-119" y="-98" type="curve"/>
      <point x="-105" y="2" type="line"/>
      <point x="-109" y="2" type="line"/>
      <point x="-123" y="-102" type="line"/>
      <point x="-123" y="-102" type="line"/>
      <point x="-123.0" y="-102.0"/>
      <point x="-123.0" y="-102.0"/>
      <point x="-123" y="-102" type="curve"/>
      <point x="-123" y="-102" type="line"/>
    </contour>
    <contour>
      <point x="77" y="-102" type="line"/>
      <point x="181" y="-102" type="line"/>
      <point x="181" y="-102" type="line"/>
      <point x="181.0" y="-102.0"/>
      <point x="181.0" y="-102.0"/>
      <point x="181" y="-102" type="curve"/>
      <point x="181" y="-102" type="line"/>
      <point x="195" y="2" type="line"/>
      <point x="191" y="2" type="line"/>
      <point x="177" y="-98" type="line"/>
      <point x="177.0" y="-98.0"/>
      <point x="177.0" y="-98.0"/>
      <point x="177" y="-98" type="curve"/>
      <point x="77" y="-98" type="line"/>
    </contour>
    <contour>
      <point x="119" y="202" type="line"/>
      <point x="119" y="198" type="line"/>
      <point x="219" y="198" type="line"/>
      <point x="219.0" y="198.0"/>
      <point x="219.0" y="198.0"/>
      <point x="219" y="198" type="curve"/>
      <point x="205" y="98" type="line"/>
      <point x="209" y="98" type="line"/>
      <point x="223" y="202" type="line"/>
      <point x="223" y="202" type="line"/>
      <point x="223.0" y="202.0"/>
      <point x="223.0" y="202.0"/>
      <point x="223" y="202" type="curve"/>
      <point x="223" y="202" type="line"/>
    </contour>
    <contour>
      <point x="23" y="202" type="line"/>
      <point x="-81" y="202" type="line"/>
      <point x="-81" y="202" type="line"/>
      <point x="-81.0" y="202.0"/>
      <point x="-81.0" y="202.0"/>
      <point x="-81" y="202" type="curve"/>
      <point x="-81" y="202" type="line"/>
      <point x="-95" y="98" type="line"/>
      <point x="-91" y="98" type="line"/>
      <point x="-77" y="198" type="line"/>
      <point x="-77.0" y="198.0"/>
      <point x="-77.0" y="198.0"/>
      <point x="-77" y="198" type="curve"/>
      <point x="23" y="198" type="line"/>
    </contour>
  </outline>
</glyph>
<glyph name="Pix06@00" format="2">
  <advance width="100"/>
  <guideline x="50" y="133" angle="90" identifier="0TEQn04FOP"/>
  <guideline x="68" y="100" angle="0" identifier="j7AK2k8kV6"/>
  <guideline x="125" y="50" angle="0" identifier="VHhNmLRBqe"/>
  <outline>
    <contour>
      <point x="52" y="38" type="line"/>
      <point x="52" y="52" type="line"/>
      <point x="52" y="52" type="line"/>
      <point x="52" y="52"/>
      <point x="52" y="52"/>
      <point x="52" y="52" type="curve"/>
      <point x="52" y="52" type="line"/>
      <point x="38" y="52" type="line"/>
      <point x="38" y="38" type="line"/>
      <point x="38" y="38" type="line"/>
      <point x="38" y="38"/>
      <point x="38" y="38"/>
      <point x="38" y="38" type="curve"/>
      <point x="38" y="38" type="line"/>
    </contour>
    <contour>
      <point x="48" y="38" type="line"/>
      <point x="62" y="38" type="line"/>
      <point x="62" y="38" type="line"/>
      <point x="62" y="38"/>
      <point x="62" y="38"/>
      <point x="62" y="38" type="curve"/>
      <point x="62" y="38" type="line"/>
      <point x="62" y="52" type="line"/>
      <point x="48" y="52" type="line"/>
      <point x="48" y="52" type="line"/>
      <point x="48" y="52"/>
      <point x="48" y="52"/>
      <point x="48" y="52" type="curve"/>
      <point x="48" y="52" type="line"/>
    </contour>
    <contour>
      <point x="48" y="62" type="line"/>
      <point x="48" y="48" type="line"/>
      <point x="48" y="48" type="line"/>
      <point x="48" y="48"/>
      <point x="48" y="48"/>
      <point x="48" y="48" type="curve"/>
      <point x="48" y="48" type="line"/>
      <point x="62" y="48" type="line"/>
      <point x="62" y="62" type="line"/>
      <point x="62" y="62" type="line"/>
      <point x="62" y="62"/>
      <point x="62" y="62"/>
      <point x="62" y="62" type="curve"/>
      <point x="62" y="62" type="line"/>
    </contour>
    <contour>
      <point x="52" y="62" type="line"/>
      <point x="38" y="62" type="line"/>
      <point x="38" y="62" type="line"/>
      <point x="38" y="62"/>
      <point x="38" y="62"/>
      <point x="38" y="62" type="curve"/>
      <point x="38" y="62" type="line"/>
      <point x="38" y="48" type="line"/>
      <point x="52" y="48" type="line"/>
      <point x="52" y="48" type="line"/>
      <point x="52" y="48"/>
      <point x="52" y="48"/>
      <point x="52" y="48" type="curve"/>
      <point x="52" y="48" type="line"/>
    </contour>
  </outline>
</glyph>
<glyph name="Pix06@01_i" format="2">
  <advance width="100"/>
  <outline>
    <contour>
      <point x="-6" y="-12" type="line"/>
      <point x="-4" y="2" type="line"/>
      <point x="-4" y="2" type="line"/>
      <point x="-5.34" y="2.0"/>
      <point x="-4.0" y="0.6599999999999999"/>
      <point x="-4" y="2" type="curve"/>
      <point x="-4" y="2" type="line"/>
      <point x="-18" y="2" type="line"/>
      <point x="-20" y="-12" type="line"/>
      <point x="-20" y="-12" type="line"/>
      <point x="-20.0" y="-12.0"/>
      <point x="-20.0" y="-12.0"/>
      <point x="-20" y="-12" type="curve"/>
      <point x="-20" y="-12" type="line"/>
    </contour>
    <contour>
      <point x="90" y="-12" type="line"/>
      <point x="104" y="-12" type="line"/>
      <point x="104" y="-12" type="line"/>
      <point x="104.0" y="-12.0"/>
      <point x="104.0" y="-12.0"/>
      <point x="104" y="-12" type="curve"/>
      <point x="104" y="-12" type="line"/>
      <point x="106" y="2" type="line"/>
      <point x="92" y="2" type="line"/>
      <point x="92" y="2" type="line"/>
      <point x="92.0" y="2.0"/>
      <point x="92.0" y="2.0"/>
      <point x="92" y="2" type="curve"/>
      <point x="92" y="2" type="line"/>
    </contour>
    <contour>
      <point x="106" y="112" type="line"/>
      <point x="104" y="98" type="line"/>
      <point x="104" y="98" type="line"/>
      <point x="104.0" y="98.0"/>
      <point x="104.0" y="98.0"/>
      <point x="104" y="98" type="curve"/>
      <point x="104" y="98" type="line"/>
      <point x="118" y="98" type="line"/>
      <point x="120" y="112" type="line"/>
      <point x="120" y="112" type="line"/>
      <point x="120.0" y="112.0"/>
      <point x="120.0" y="112.0"/>
      <point x="120" y="112" type="curve"/>
      <point x="120" y="112" type="line"/>
    </contour>
    <contour>
      <point x="12" y="112" type="line"/>
      <point x="-2" y="112" type="line"/>
      <point x="-2" y="112" type="line"/>
      <point x="-2.0" y="112.0"/>
      <point x="-2.0" y="112.0"/>
      <point x="-2" y="112" type="curve"/>
      <point x="-2" y="112" type="line"/>
      <point x="-4" y="98" type="line"/>
      <point x="10" y="98" type="line"/>
      <point x="10" y="98" type="line"/>
      <point x="10.0" y="98.0"/>
      <point x="10.0" y="98.0"/>
      <point x="10" y="98" type="curve"/>
      <point x="10" y="98" type="line"/>
    </contour>
  </outline>
</glyph>
<glyph name="Pix07@11_i" format="2">
  <advance width="100"/>
  <outline>
    <contour>
      <point x="-12.0" y="-52.0" type="line"/>
      <point x="-5.0" y="2.0" type="line"/>
      <point x="-5.0" y="2.0" type="line"/>
      <point x="-5.0" y="2.0"/>
      <point x="-5.0" y="2.0"/>
      <point x="-5.0" y="2.0" type="curve"/>
      <point x="-5.0" y="2.0" type="line"/>
      <point x="-59.0" y="2.0" type="line"/>
      <point x="-66.0" y="-52.0" type="line"/>
      <point x="-66.0" y="-52.0" type="line"/>
      <point x="-66.0" y="-52.0"/>
      <point x="-66.0" y="-52.0"/>
      <point x="-66.0" y="-52.0" type="curve"/>
      <point x="-66.0" y="-52.0" type="line"/>
    </contour>
    <contour>
      <point x="84.0" y="-52.0" type="line"/>
      <point x="138.0" y="-52.0" type="line"/>
      <point x="138.0" y="-52.0" type="line"/>
      <point x="138.0" y="-52.0"/>
      <point x="138.0" y="-52.0"/>
      <point x="138.0" y="-52.0" type="curve"/>
      <point x="138.0" y="-52.0" type="line"/>
      <point x="145.0" y="2.0" type="line"/>
      <point x="91.0" y="2.0" type="line"/>
      <point x="91.0" y="2.0" type="line"/>
      <point x="91.0" y="2.0"/>
      <point x="91.0" y="2.0"/>
      <point x="91.0" y="2.0" type="curve"/>
      <point x="91.0" y="2.0" type="line"/>
    </contour>
    <contour>
      <point x="112.0" y="152.0" type="line"/>
      <point x="105.0" y="98.0" type="line"/>
      <point x="105.0" y="98.0" type="line"/>
      <point x="105.0" y="98.0"/>
      <point x="105.0" y="98.0"/>
      <point x="105.0" y="98.0" type="curve"/>
      <point x="105.0" y="98.0" type="line"/>
      <point x="159.0" y="98.0" type="line"/>
      <point x="166.0" y="152.0" type="line"/>
      <point x="166.0" y="152.0" type="line"/>
      <point x="166.0" y="152.0"/>
      <point x="166.0" y="152.0"/>
      <point x="166.0" y="152.0" type="curve"/>
      <point x="166.0" y="152.0" type="line"/>
    </contour>
    <contour>
      <point x="16.0" y="152.0" type="line"/>
      <point x="-38.0" y="152.0" type="line"/>
      <point x="-38.0" y="152.0" type="line"/>
      <point x="-38.0" y="152.0"/>
      <point x="-38.0" y="152.0"/>
      <point x="-38.0" y="152.0" type="curve"/>
      <point x="-38.0" y="152.0" type="line"/>
      <point x="-45.0" y="98.0" type="line"/>
      <point x="9.0" y="98.0" type="line"/>
      <point x="9.0" y="98.0" type="line"/>
      <point x="9.0" y="98.0"/>
      <point x="9.0" y="98.0"/>
      <point x="9.0" y="98.0" type="curve"/>
      <point x="9.0" y="98.0" type="line"/>
    </contour>
  </outline>
</glyph>
<glyph name="Pix07@20" format="2">
  <advance width="100"/>
  <guideline x="50" y="133" angle="90" identifier="0TEQn04FOP"/>
  <guideline x="68" y="100" angle="0" identifier="j7AK2k8kV6"/>
  <guideline x="125" y="50" angle="0" identifier="VHhNmLRBqe"/>
  <outline>
    <contour>
      <point x="52.0" y="-52.0" type="line"/>
      <point x="52.0" y="50.0" type="line"/>
      <point x="52.0" y="51.0" type="line"/>
      <point x="52" y="52"/>
      <point x="52" y="52"/>
      <point x="51.0" y="52.0" type="curve"/>
      <point x="50.0" y="52.0" type="line"/>
      <point x="-52.0" y="52.0" type="line"/>
      <point x="-52.0" y="-52.0" type="line"/>
      <point x="-52.0" y="-52.0" type="line"/>
      <point x="-52" y="-52"/>
      <point x="-52" y="-52"/>
      <point x="-52.0" y="-52.0" type="curve"/>
      <point x="-52.0" y="-52.0" type="line"/>
    </contour>
    <contour>
      <point x="48.0" y="-52.0" type="line"/>
      <point x="152.0" y="-52.0" type="line"/>
      <point x="152.0" y="-52.0" type="line"/>
      <point x="152" y="-52"/>
      <point x="152" y="-52"/>
      <point x="152.0" y="-52.0" type="curve"/>
      <point x="152.0" y="-52.0" type="line"/>
      <point x="152.0" y="52.0" type="line"/>
      <point x="50.0" y="52.0" type="line"/>
      <point x="49.0" y="52.0" type="line"/>
      <point x="48" y="52"/>
      <point x="48" y="52"/>
      <point x="48.0" y="51.0" type="curve"/>
      <point x="48.0" y="50.0" type="line"/>
    </contour>
    <contour>
      <point x="48.0" y="152.0" type="line"/>
      <point x="48.0" y="50.0" type="line"/>
      <point x="48.0" y="49.0" type="line"/>
      <point x="48" y="48"/>
      <point x="48" y="48"/>
      <point x="49.0" y="48.0" type="curve"/>
      <point x="50.0" y="48.0" type="line"/>
      <point x="152.0" y="48.0" type="line"/>
      <point x="152.0" y="152.0" type="line"/>
      <point x="152.0" y="152.0" type="line"/>
      <point x="152" y="152"/>
      <point x="152" y="152"/>
      <point x="152.0" y="152.0" type="curve"/>
      <point x="152.0" y="152.0" type="line"/>
    </contour>
    <contour>
      <point x="52.0" y="152.0" type="line"/>
      <point x="-52.0" y="152.0" type="line"/>
      <point x="-52.0" y="152.0" type="line"/>
      <point x="-52" y="152"/>
      <point x="-52" y="152"/>
      <point x="-52.0" y="152.0" type="curve"/>
      <point x="-52.0" y="152.0" type="line"/>
      <point x="-52.0" y="48.0" type="line"/>
      <point x="50.0" y="48.0" type="line"/>
      <point x="51.0" y="48.0" type="line"/>
      <point x="52" y="48"/>
      <point x="52" y="48"/>
      <point x="52.0" y="49.0" type="curve"/>
      <point x="52.0" y="50.0" type="line"/>
    </contour>
  </outline>
</glyph>
<glyph name="Pix08@10" format="2">
  <advance width="100"/>
  <guideline x="50" y="133" angle="90" identifier="0TEQn04FOP"/>
  <guideline x="68" y="100" angle="0" identifier="j7AK2k8kV6"/>
  <guideline x="125" y="50" angle="0" identifier="VHhNmLRBqe"/>
  <guideline x="-13" y="25" angle="0" identifier="lhfIYr4Ekd"/>
  <guideline x="-22" y="75" angle="0" identifier="M8YhAuLaaj"/>
  <outline>
    <contour>
      <point x="52.0" y="-2.0" type="line"/>
      <point x="52.0" y="52.0" type="line"/>
      <point x="52.0" y="52.0" type="line"/>
      <point x="52" y="52"/>
      <point x="52" y="52"/>
      <point x="52.0" y="52.0" type="curve"/>
      <point x="52.0" y="52.0" type="line"/>
      <point x="-2.0" y="52.0" type="line"/>
      <point x="-2.0" y="48.0" type="line"/>
      <point x="48.0" y="48.0" type="line"/>
      <point x="48" y="48"/>
      <point x="48" y="48"/>
      <point x="48.0" y="48.0" type="curve"/>
      <point x="48.0" y="-2.0" type="line"/>
    </contour>
    <contour>
      <point x="48" y="-2.0" type="line"/>
      <point x="52" y="-2.0" type="line"/>
      <point x="52" y="48.0" type="line"/>
      <point x="52" y="48"/>
      <point x="52" y="48"/>
      <point x="52" y="48.0" type="curve"/>
      <point x="102" y="48.0" type="line"/>
      <point x="102" y="52.0" type="line"/>
      <point x="48" y="52.0" type="line"/>
      <point x="48" y="52.0" type="line"/>
      <point x="48" y="52"/>
      <point x="48" y="52"/>
      <point x="48" y="52.0" type="curve"/>
      <point x="48" y="52.0" type="line"/>
    </contour>
    <contour>
      <point x="48.0" y="102.0" type="line"/>
      <point x="48.0" y="48.0" type="line"/>
      <point x="48.0" y="48.0" type="line"/>
      <point x="48" y="48"/>
      <point x="48" y="48"/>
      <point x="48.0" y="48.0" type="curve"/>
      <point x="48.0" y="48.0" type="line"/>
      <point x="102.0" y="48.0" type="line"/>
      <point x="102.0" y="52.0" type="line"/>
      <point x="52.0" y="52.0" type="line"/>
      <point x="52" y="52"/>
      <point x="52" y="52"/>
      <point x="52.0" y="52.0" type="curve"/>
      <point x="52.0" y="102.0" type="line"/>
    </contour>
    <contour>
      <point x="52" y="102" type="line"/>
      <point x="48" y="102" type="line"/>
      <point x="48" y="52" type="line"/>
      <point x="48" y="52"/>
      <point x="48" y="52"/>
      <point x="48" y="52" type="curve"/>
      <point x="-2" y="52" type="line"/>
      <point x="-2" y="48" type="line"/>
      <point x="52" y="48" type="line"/>
      <point x="52" y="48" type="line"/>
      <point x="52" y="48"/>
      <point x="52" y="48"/>
      <point x="52" y="48" type="curve"/>
      <point x="52" y="48" type="line"/>
    </contour>
  </outline>
</glyph>
<glyph name="Pix08@10_i" format="2">
  <advance width="100"/>
  <outline>
    <contour>
      <point x="45.0" y="-2.0" type="line"/>
      <point x="52.0" y="52.0" type="line"/>
      <point x="52.0" y="52.0" type="line"/>
      <point x="52.0" y="52.0"/>
      <point x="52.0" y="52.0"/>
      <point x="52.0" y="52.0" type="curve"/>
      <point x="52.0" y="52.0" type="line"/>
      <point x="-2.0" y="52.0" type="line"/>
      <point x="-2.0" y="48.0" type="line"/>
      <point x="48.0" y="48.0" type="line"/>
      <point x="48.0" y="48.0"/>
      <point x="48.0" y="48.0"/>
      <point x="48.0" y="48.0" type="curve"/>
      <point x="41.0" y="-2.0" type="line"/>
    </contour>
    <contour>
      <point x="41.0" y="-2.0" type="line"/>
      <point x="45.0" y="-2.0" type="line"/>
      <point x="52.0" y="48.0" type="line"/>
      <point x="52.0" y="48.0"/>
      <point x="52.0" y="48.0"/>
      <point x="52.0" y="48.0" type="curve"/>
      <point x="102.0" y="48.0" type="line"/>
      <point x="102.0" y="52.0" type="line"/>
      <point x="49.0" y="52.0" type="line"/>
      <point x="49.0" y="52.0" type="line"/>
      <point x="49.0" y="52.0"/>
      <point x="49.0" y="52.0"/>
      <point x="49.0" y="52.0" type="curve"/>
      <point x="49.0" y="52.0" type="line"/>
    </contour>
    <contour>
      <point x="55.0" y="102.0" type="line"/>
      <point x="48.0" y="48.0" type="line"/>
      <point x="48.0" y="48.0" type="line"/>
      <point x="48.0" y="48.0"/>
      <point x="48.0" y="48.0"/>
      <point x="48.0" y="48.0" type="curve"/>
      <point x="48.0" y="48.0" type="line"/>
      <point x="102.0" y="48.0" type="line"/>
      <point x="102.0" y="52.0" type="line"/>
      <point x="52.0" y="52.0" type="line"/>
      <point x="52.0" y="52.0"/>
      <point x="52.0" y="52.0"/>
      <point x="52.0" y="52.0" type="curve"/>
      <point x="59.0" y="102.0" type="line"/>
    </contour>
    <contour>
      <point x="59.0" y="102.0" type="line"/>
      <point x="55.0" y="102.0" type="line"/>
      <point x="49.0" y="52.0" type="line"/>
      <point x="49.0" y="52.0"/>
      <point x="49.0" y="52.0"/>
      <point x="49.0" y="52.0" type="curve"/>
      <point x="-2.0" y="52.0" type="line"/>
      <point x="-2.0" y="48.0" type="line"/>
      <point x="52.0" y="48.0" type="line"/>
      <point x="52.0" y="48.0" type="line"/>
      <point x="52.0" y="48.0"/>
      <point x="52.0" y="48.0"/>
      <point x="52.0" y="48.0" type="curve"/>
      <point x="52.0" y="48.0" type="line"/>
    </contour>
  </outline>
</glyph>
<glyph name="Pix09@01_i" format="2">
  <advance width="100"/>
  <outline>
    <contour>
      <point x="-7" y="-12" type="line"/>
      <point x="-5" y="2" type="line"/>
      <point x="-5" y="2" type="line"/>
      <point x="-5.0" y="2.0"/>
      <point x="-5.0" y="2.0"/>
      <point x="-5" y="2" type="curve"/>
      <point x="-5" y="2" type="line"/>
      <point x="-19" y="2" type="line"/>
      <point x="-19" y="2" type="line"/>
      <point x="-19" y="2" type="line"/>
      <point x="-13.0" y="-5.0"/>
      <point x="-13.0" y="-5.0"/>
      <point x="-7" y="-12" type="curve"/>
      <point x="-7" y="-12" type="line"/>
    </contour>
    <contour>
      <point x="89" y="-12" type="line"/>
      <point x="89" y="-12" type="line"/>
      <point x="89" y="-12" type="line"/>
      <point x="96.99999999999999" y="-5.0"/>
      <point x="97.00000000000001" y="-5.0"/>
      <point x="105" y="2" type="curve"/>
      <point x="105" y="2" type="line"/>
      <point x="105" y="2" type="line"/>
      <point x="91" y="2" type="line"/>
      <point x="91" y="2" type="line"/>
      <point x="91.0" y="2.0"/>
      <point x="91.0" y="2.0"/>
      <point x="91" y="2" type="curve"/>
      <point x="91" y="2" type="line"/>
    </contour>
    <contour>
      <point x="107" y="112" type="line"/>
      <point x="105" y="98" type="line"/>
      <point x="105" y="98" type="line"/>
      <point x="105.0" y="98.0"/>
      <point x="105.0" y="98.0"/>
      <point x="105" y="98" type="curve"/>
      <point x="105" y="98" type="line"/>
      <point x="119" y="98" type="line"/>
      <point x="119" y="98" type="line"/>
      <point x="119" y="98" type="line"/>
      <point x="113.0" y="105.0"/>
      <point x="113.0" y="105.0"/>
      <point x="107" y="112" type="curve"/>
      <point x="107" y="112" type="line"/>
    </contour>
    <contour>
      <point x="11" y="112" type="line"/>
      <point x="11" y="112" type="line"/>
      <point x="11" y="112" type="line"/>
      <point x="3.0" y="105.0"/>
      <point x="3.0" y="105.0"/>
      <point x="-5" y="98" type="curve"/>
      <point x="-5" y="98" type="line"/>
      <point x="-5" y="98" type="line"/>
      <point x="9" y="98" type="line"/>
      <point x="9" y="98" type="line"/>
      <point x="9.0" y="98.0"/>
      <point x="9.0" y="98.0"/>
      <point x="9" y="98" type="curve"/>
      <point x="9" y="98" type="line"/>
    </contour>
  </outline>
</glyph>
<glyph name="Pix09@20_i" format="2">
  <advance width="100"/>
  <outline>
    <contour>
      <point x="38.0" y="-52.0" type="line"/>
      <point x="52.0" y="52.0" type="line"/>
      <point x="52.0" y="52.0" type="line"/>
      <point x="52.0" y="52.0"/>
      <point x="52.0" y="52.0"/>
      <point x="52.0" y="52.0" type="curve"/>
      <point x="52.0" y="52.0" type="line"/>
      <point x="-52.0" y="52.0" type="line"/>
      <point x="-52.0" y="48.0" type="line"/>
      <point x="-52.0" y="48.0" type="line"/>
      <point x="-6.439999999999998" y="-5.600000000000001"/>
      <point x="-10.220000000000006" y="-1.0799999999999983"/>
      <point x="34.0" y="-52.0" type="curve"/>
      <point x="34.0" y="-52.0" type="line"/>
    </contour>
    <contour>
      <point x="34.0" y="-52.0" type="line"/>
      <point x="38.0" y="-52.0" type="line"/>
      <point x="38.0" y="-52.0" type="line"/>
      <point x="95.62" y="-1.0799999999999983"/>
      <point x="90.36" y="-5.600000000000001"/>
      <point x="152.0" y="48.0" type="curve"/>
      <point x="152.0" y="48.0" type="line"/>
      <point x="152.0" y="52.0" type="line"/>
      <point x="48.0" y="52.0" type="line"/>
      <point x="48.0" y="52.0" type="line"/>
      <point x="48.0" y="52.0"/>
      <point x="48.0" y="52.0"/>
      <point x="48.0" y="52.0" type="curve"/>
      <point x="48.0" y="52.0" type="line"/>
    </contour>
    <contour>
      <point x="62.0" y="152.0" type="line"/>
      <point x="48.0" y="48.0" type="line"/>
      <point x="48.0" y="48.0" type="line"/>
      <point x="48.0" y="48.0"/>
      <point x="48.0" y="48.0"/>
      <point x="48.0" y="48.0" type="curve"/>
      <point x="48.0" y="48.0" type="line"/>
      <point x="152.0" y="48.0" type="line"/>
      <point x="152.0" y="52.0" type="line"/>
      <point x="152.0" y="52.0" type="line"/>
      <point x="106.44" y="105.6"/>
      <point x="110.22" y="101.08"/>
      <point x="66.0" y="152.0" type="curve"/>
      <point x="66.0" y="152.0" type="line"/>
    </contour>
    <contour>
      <point x="66.0" y="152.0" type="line"/>
      <point x="62.0" y="152.0" type="line"/>
      <point x="62.0" y="152.0" type="line"/>
      <point x="4.3799999999999955" y="101.08"/>
      <point x="9.64" y="105.6"/>
      <point x="-52.0" y="52.0" type="curve"/>
      <point x="-52.0" y="52.0" type="line"/>
      <point x="-52.0" y="48.0" type="line"/>
      <point x="52.0" y="48.0" type="line"/>
      <point x="52.0" y="48.0" type="line"/>
      <point x="52.0" y="48.0"/>
      <point x="52.0" y="48.0"/>
      <point x="52.0" y="48.0" type="curve"/>
      <point x="52.0" y="48.0" type="line"/>
    </contour>
  </outline>
</glyph>
<glyph name="Pix10@00_i" format="2">
  <advance width="100"/>
  <outline>
    <contour>
      <point x="42.0" y="30.0" type="line"/>
      <point x="44.0" y="44.0" type="line"/>
      <point x="44.0" y="44.0" type="line"/>
      <point x="44.0" y="44.0"/>
      <point x="44.0" y="44.0"/>
      <point x="44.0" y="44.0" type="curve"/>
      <point x="44.0" y="44.0" type="line"/>
      <point x="30.0" y="44.0" type="line"/>
      <point x="30.0" y="40.0" type="line"/>
      <point x="30.0" y="40.0" type="line"/>
      <point x="36.7" y="40.0"/>
      <point x="39.34" y="38.04"/>
      <point x="38.0" y="30.0" type="curve"/>
      <point x="38.0" y="30.0" type="line"/>
    </contour>
    <contour>
      <point x="54.0" y="30.0" type="line"/>
      <point x="58.0" y="30.0" type="line"/>
      <point x="58.0" y="30.0" type="line"/>
      <point x="59.34" y="36.7"/>
      <point x="63.3" y="40.0"/>
      <point x="70.0" y="40.0" type="curve"/>
      <point x="70.0" y="40.0" type="line"/>
      <point x="70.0" y="44.0" type="line"/>
      <point x="56.0" y="44.0" type="line"/>
      <point x="56.0" y="44.0" type="line"/>
      <point x="56.0" y="44.0"/>
      <point x="56.0" y="44.0"/>
      <point x="56.0" y="44.0" type="curve"/>
      <point x="56.0" y="44.0" type="line"/>
    </contour>
    <contour>
      <point x="60.0" y="70.0" type="line"/>
      <point x="58.0" y="56.0" type="line"/>
      <point x="58.0" y="56.0" type="line"/>
      <point x="58.0" y="56.0"/>
      <point x="58.0" y="56.0"/>
      <point x="58.0" y="56.0" type="curve"/>
      <point x="58.0" y="56.0" type="line"/>
      <point x="72.0" y="56.0" type="line"/>
      <point x="72.0" y="60.0" type="line"/>
      <point x="72.0" y="60.0" type="line"/>
      <point x="65.3" y="60.0"/>
      <point x="62.66" y="61.96"/>
      <point x="64.0" y="70.0" type="curve"/>
      <point x="64.0" y="70.0" type="line"/>
    </contour>
    <contour>
      <point x="48.0" y="70.0" type="line"/>
      <point x="44.0" y="70.0" type="line"/>
      <point x="44.0" y="70.0" type="line"/>
      <point x="42.66" y="61.96"/>
      <point x="38.7" y="60.0"/>
      <point x="32.0" y="60.0" type="curve"/>
      <point x="32.0" y="60.0" type="line"/>
      <point x="32.0" y="56.0" type="line"/>
      <point x="46.0" y="56.0" type="line"/>
      <point x="46.0" y="56.0" type="line"/>
      <point x="46.0" y="56.0"/>
      <point x="46.0" y="56.0"/>
      <point x="46.0" y="56.0" type="curve"/>
      <point x="46.0" y="56.0" type="line"/>
    </contour>
  </outline>
</glyph>
<glyph name="Pix10@20_i" format="2">
  <advance width="100"/>
  <outline>
    <contour>
      <point x="38.0" y="-52.0" type="line"/>
      <point x="52.0" y="50.0" type="line"/>
      <point x="52.0" y="51.0" type="line"/>
      <point x="52.0" y="51.0"/>
      <point x="51.0" y="52.0"/>
      <point x="51.0" y="52.0" type="curve"/>
      <point x="50.0" y="52.0" type="line"/>
      <point x="-51.0" y="52.0" type="line"/>
      <point x="-52.0" y="48.0" type="line"/>
      <point x="-52.0" y="48.0" type="line"/>
      <point x="5.6200000000000045" y="48.0"/>
      <point x="42.04" y="6.960000000000001"/>
      <point x="34.0" y="-52.0" type="curve"/>
      <point x="34.0" y="-52.0" type="line"/>
    </contour>
    <contour>
      <point x="34.0" y="-52.0" type="line"/>
      <point x="38.0" y="-52.0" type="line"/>
      <point x="38.0" y="-52.0" type="line"/>
      <point x="46.04" y="6.960000000000001"/>
      <point x="92.03999999999999" y="48.0"/>
      <point x="151.0" y="48.0" type="curve"/>
      <point x="151.0" y="48.0" type="line"/>
      <point x="152.0" y="52.0" type="line"/>
      <point x="50.0" y="52.0" type="line"/>
      <point x="49.0" y="52.0" type="line"/>
      <point x="49.0" y="52.0"/>
      <point x="48.0" y="51.0"/>
      <point x="48.0" y="51.0" type="curve"/>
      <point x="48.0" y="50.0" type="line"/>
    </contour>
    <contour>
      <point x="63.0" y="152.0" type="line"/>
      <point x="48.0" y="50.0" type="line"/>
      <point x="48.0" y="49.0" type="line"/>
      <point x="48.0" y="49.0"/>
      <point x="49.0" y="48.0"/>
      <point x="49.0" y="48.0" type="curve"/>
      <point x="50.0" y="48.0" type="line"/>
      <point x="151.0" y="48.0" type="line"/>
      <point x="152.0" y="52.0" type="line"/>
      <point x="152.0" y="52.0" type="line"/>
      <point x="93.03999999999999" y="52.0"/>
      <point x="58.96" y="93.03999999999999"/>
      <point x="67.0" y="152.0" type="curve"/>
      <point x="67.0" y="152.0" type="line"/>
    </contour>
    <contour>
      <point x="67.0" y="152.0" type="line"/>
      <point x="63.0" y="152.0" type="line"/>
      <point x="63.0" y="152.0" type="line"/>
      <point x="54.96" y="93.03999999999999"/>
      <point x="9.300000000000004" y="52.0"/>
      <point x="-51.0" y="52.0" type="curve"/>
      <point x="-51.0" y="52.0" type="line"/>
      <point x="-52.0" y="48.0" type="line"/>
      <point x="50.0" y="48.0" type="line"/>
      <point x="51.0" y="48.0" type="line"/>
      <point x="51.0" y="48.0"/>
      <point x="52.0" y="49.0"/>
      <point x="52.0" y="49.0" type="curve"/>
      <point x="52.0" y="50.0" type="line"/>
    </contour>
  </outline>
</glyph>
<glyph name="Pix10@21_i" format="2">
  <advance width="100"/>
  <outline>
    <contour>
      <point x="-19.0" y="-102.0" type="line"/>
      <point x="-5.0" y="2.0" type="line"/>
      <point x="-5.0" y="2.0" type="line"/>
      <point x="-5.0" y="2.0"/>
      <point x="-5.0" y="2.0"/>
      <point x="-5.0" y="2.0" type="curve"/>
      <point x="-5.0" y="2.0" type="line"/>
      <point x="-109.0" y="2.0" type="line"/>
      <point x="-109.0" y="-2.0" type="line"/>
      <point x="-109.0" y="-2.0" type="line"/>
      <point x="-50.00000000000001" y="-2.0"/>
      <point x="-15.0" y="-42.0"/>
      <point x="-23.0" y="-102.0" type="curve"/>
      <point x="-23.0" y="-102.0" type="line"/>
    </contour>
    <contour>
      <point x="77.0" y="-102.0" type="line"/>
      <point x="81.0" y="-102.0" type="line"/>
      <point x="81.0" y="-102.0" type="line"/>
      <point x="90.0" y="-42.0"/>
      <point x="136.0" y="-2.0"/>
      <point x="195.0" y="-2.0" type="curve"/>
      <point x="195.0" y="-2.0" type="line"/>
      <point x="195.0" y="2.0" type="line"/>
      <point x="91.0" y="2.0" type="line"/>
      <point x="91.0" y="2.0" type="line"/>
      <point x="91.0" y="2.0"/>
      <point x="91.0" y="2.0"/>
      <point x="91.0" y="2.0" type="curve"/>
      <point x="91.0" y="2.0" type="line"/>
    </contour>
    <contour>
      <point x="119.0" y="202.0" type="line"/>
      <point x="105.0" y="98.0" type="line"/>
      <point x="105.0" y="98.0" type="line"/>
      <point x="105.0" y="98.0"/>
      <point x="105.0" y="98.0"/>
      <point x="105.0" y="98.0" type="curve"/>
      <point x="105.0" y="98.0" type="line"/>
      <point x="209.0" y="98.0" type="line"/>
      <point x="209.0" y="102.0" type="line"/>
      <point x="209.0" y="102.0" type="line"/>
      <point x="150.0" y="102.0"/>
      <point x="115.00000000000001" y="142.0"/>
      <point x="123.0" y="202.0" type="curve"/>
      <point x="123.0" y="202.0" type="line"/>
    </contour>
    <contour>
      <point x="23.0" y="202.0" type="line"/>
      <point x="19.0" y="202.0" type="line"/>
      <point x="19.0" y="202.0" type="line"/>
      <point x="10.000000000000002" y="142.0"/>
      <point x="-36.00000000000001" y="102.0"/>
      <point x="-95.0" y="102.0" type="curve"/>
      <point x="-95.0" y="102.0" type="line"/>
      <point x="-95.0" y="98.0" type="line"/>
      <point x="9.0" y="98.0" type="line"/>
      <point x="9.0" y="98.0" type="line"/>
      <point x="9.0" y="98.0"/>
      <point x="9.0" y="98.0"/>
      <point x="9.0" y="98.0" type="curve"/>
      <point x="9.0" y="98.0" type="line"/>
    </contour>
  </outline>
</glyph>
<glyph name="Pix11@00_i" format="2">
  <advance width="100"/>
  <outline>
    <contour>
      <point x="51.0" y="38.0" type="line"/>
      <point x="51.0" y="38.0" type="line"/>
      <point x="51.0" y="38.0" type="line"/>
      <point x="51.0" y="46.04"/>
      <point x="46.04" y="52.0"/>
      <point x="38.0" y="52.0" type="curve"/>
      <point x="38.0" y="52.0" type="line"/>
      <point x="38.0" y="52.0" type="line"/>
      <point x="38.0" y="48.0" type="line"/>
      <point x="38.0" y="48.0" type="line"/>
      <point x="43.36" y="48.0"/>
      <point x="47.0" y="43.36"/>
      <point x="47.0" y="38.0" type="curve"/>
      <point x="47.0" y="38.0" type="line"/>
    </contour>
    <contour>
      <point x="47.0" y="38.0" type="line"/>
      <point x="51.0" y="38.0" type="line"/>
      <point x="51.0" y="38.0" type="line"/>
      <point x="51.0" y="43.36"/>
      <point x="55.3" y="48.0"/>
      <point x="62.0" y="48.0" type="curve"/>
      <point x="62.0" y="48.0" type="line"/>
      <point x="62.0" y="52.0" type="line"/>
      <point x="62.0" y="52.0" type="line"/>
      <point x="62.0" y="52.0" type="line"/>
      <point x="52.62" y="52.0"/>
      <point x="47.0" y="46.04"/>
      <point x="47.0" y="38.0" type="curve"/>
      <point x="47.0" y="38.0" type="line"/>
    </contour>
    <contour>
      <point x="49.0" y="62.0" type="line"/>
      <point x="49.0" y="62.0" type="line"/>
      <point x="49.0" y="62.0" type="line"/>
      <point x="49.0" y="53.96"/>
      <point x="53.96" y="48.0"/>
      <point x="62.0" y="48.0" type="curve"/>
      <point x="62.0" y="48.0" type="line"/>
      <point x="62.0" y="48.0" type="line"/>
      <point x="62.0" y="52.0" type="line"/>
      <point x="62.0" y="52.0" type="line"/>
      <point x="56.64" y="52.0"/>
      <point x="53.0" y="56.64"/>
      <point x="53.0" y="62.0" type="curve"/>
      <point x="53.0" y="62.0" type="line"/>
    </contour>
    <contour>
      <point x="53.0" y="62.0" type="line"/>
      <point x="49.0" y="62.0" type="line"/>
      <point x="49.0" y="62.0" type="line"/>
      <point x="49.0" y="56.64"/>
      <point x="44.7" y="52.0"/>
      <point x="38.0" y="52.0" type="curve"/>
      <point x="38.0" y="52.0" type="line"/>
      <point x="38.0" y="48.0" type="line"/>
      <point x="38.0" y="48.0" type="line"/>
      <point x="38.0" y="48.0" type="line"/>
      <point x="44.7" y="48.0"/>
      <point x="50.32" y="53.96"/>
      <point x="53.0" y="62.0" type="curve"/>
      <point x="53.0" y="62.0" type="line"/>
    </contour>
  </outline>
</glyph>
<glyph name="Pix12@00" format="2">
  <advance width="100"/>
  <guideline x="50" y="133" angle="90" identifier="0TEQn04FOP"/>
  <guideline x="68" y="100" angle="0" identifier="j7AK2k8kV6"/>
  <guideline x="125" y="50" angle="0" identifier="VHhNmLRBqe"/>
  <outline>
    <contour>
      <point x="50.0" y="38.0" type="line"/>
      <point x="50.0" y="40.0" type="line"/>
      <point x="50.0" y="40.0" type="line"/>
      <point x="50" y="47"/>
      <point x="47" y="50"/>
      <point x="40.0" y="50.0" type="curve"/>
      <point x="40.0" y="50.0" type="line"/>
      <point x="38.0" y="50.0" type="line"/>
      <point x="38.0" y="38.0" type="line"/>
      <point x="38.0" y="38.0" type="line"/>
      <point x="38" y="38"/>
      <point x="38" y="38"/>
      <point x="38.0" y="38.0" type="curve"/>
      <point x="38.0" y="38.0" type="line"/>
    </contour>
    <contour>
      <point x="50.0" y="38.0" type="line"/>
      <point x="62.0" y="38.0" type="line"/>
      <point x="62.0" y="38.0" type="line"/>
      <point x="62" y="38"/>
      <point x="62" y="38"/>
      <point x="62.0" y="38.0" type="curve"/>
      <point x="62.0" y="38.0" type="line"/>
      <point x="62.0" y="50.0" type="line"/>
      <point x="60.0" y="50.0" type="line"/>
      <point x="60.0" y="50.0" type="line"/>
      <point x="53" y="50"/>
      <point x="50" y="47"/>
      <point x="50.0" y="40.0" type="curve"/>
      <point x="50.0" y="40.0" type="line"/>
    </contour>
    <contour>
      <point x="50.0" y="62.0" type="line"/>
      <point x="50.0" y="60.0" type="line"/>
      <point x="50.0" y="60.0" type="line"/>
      <point x="50" y="53"/>
      <point x="53" y="50"/>
      <point x="60.0" y="50.0" type="curve"/>
      <point x="60.0" y="50.0" type="line"/>
      <point x="62.0" y="50.0" type="line"/>
      <point x="62.0" y="62.0" type="line"/>
      <point x="62.0" y="62.0" type="line"/>
      <point x="62" y="62"/>
      <point x="62" y="62"/>
      <point x="62.0" y="62.0" type="curve"/>
      <point x="62.0" y="62.0" type="line"/>
    </contour>
    <contour>
      <point x="50.0" y="62.0" type="line"/>
      <point x="38.0" y="62.0" type="line"/>
      <point x="38.0" y="62.0" type="line"/>
      <point x="38" y="62"/>
      <point x="38" y="62"/>
      <point x="38.0" y="62.0" type="curve"/>
      <point x="38.0" y="62.0" type="line"/>
      <point x="38.0" y="50.0" type="line"/>
      <point x="40.0" y="50.0" type="line"/>
      <point x="40.0" y="50.0" type="line"/>
      <point x="47" y="50"/>
      <point x="50" y="53"/>
      <point x="50.0" y="60.0" type="curve"/>
      <point x="50.0" y="60.0" type="line"/>
    </contour>
  </outline>
</glyph>
<glyph name="Pix12@11_i" format="2">
  <advance width="100"/>
  <outline>
    <contour>
      <point x="-14.0" y="-52.0" type="line"/>
      <point x="-14.0" y="-52.0" type="line"/>
      <point x="-14.0" y="-52.0" type="line"/>
      <point x="-10.0" y="-21.0"/>
      <point x="-28.0" y="0.0"/>
      <point x="-59.0" y="0.0" type="curve"/>
      <point x="-59.0" y="0.0" type="line"/>
      <point x="-59.0" y="0.0" type="line"/>
      <point x="-66.0" y="-52.0" type="line"/>
      <point x="-66.0" y="-52.0" type="line"/>
      <point x="-66.0" y="-52.0"/>
      <point x="-66.0" y="-52.0"/>
      <point x="-66.0" y="-52.0" type="curve"/>
      <point x="-66.0" y="-52.0" type="line"/>
    </contour>
    <contour>
      <point x="86.0" y="-52.0" type="line"/>
      <point x="138.0" y="-52.0" type="line"/>
      <point x="138.0" y="-52.0" type="line"/>
      <point x="138.0" y="-52.0"/>
      <point x="138.0" y="-52.0"/>
      <point x="138.0" y="-52.0" type="curve"/>
      <point x="138.0" y="-52.0" type="line"/>
      <point x="145.0" y="0.0" type="line"/>
      <point x="145.0" y="0.0" type="line"/>
      <point x="145.0" y="0.0" type="line"/>
      <point x="113.99999999999999" y="0.0"/>
      <point x="90.0" y="-21.0"/>
      <point x="86.0" y="-52.0" type="curve"/>
      <point x="86.0" y="-52.0" type="line"/>
    </contour>
    <contour>
      <point x="114.0" y="152.0" type="line"/>
      <point x="114.0" y="152.0" type="line"/>
      <point x="114.0" y="152.0" type="line"/>
      <point x="110.0" y="120.99999999999999"/>
      <point x="127.99999999999999" y="100.0"/>
      <point x="159.0" y="100.0" type="curve"/>
      <point x="159.0" y="100.0" type="line"/>
      <point x="159.0" y="100.0" type="line"/>
      <point x="166.0" y="152.0" type="line"/>
      <point x="166.0" y="152.0" type="line"/>
      <point x="166.0" y="152.0"/>
      <point x="166.0" y="152.0"/>
      <point x="166.0" y="152.0" type="curve"/>
      <point x="166.0" y="152.0" type="line"/>
    </contour>
    <contour>
      <point x="14.0" y="152.0" type="line"/>
      <point x="-38.0" y="152.0" type="line"/>
      <point x="-38.0" y="152.0" type="line"/>
      <point x="-38.0" y="152.0"/>
      <point x="-38.0" y="152.0"/>
      <point x="-38.0" y="152.0" type="curve"/>
      <point x="-38.0" y="152.0" type="line"/>
      <point x="-45.0" y="100.0" type="line"/>
      <point x="-45.0" y="100.0" type="line"/>
      <point x="-45.0" y="100.0" type="line"/>
      <point x="-14.0" y="100.0"/>
      <point x="10.0" y="120.99999999999999"/>
      <point x="14.0" y="152.0" type="curve"/>
      <point x="14.0" y="152.0" type="line"/>
    </contour>
  </outline>
</glyph>
